<svg xmlns="http://www.w3.org/2000/svg" viewBox="0 0 1000 1000"><defs><style>.cls-1{fill:#fff;}.cls-2{fill:#171e28;}.cls-3{fill:#0eb8f3;}</style></defs><g id="Слой_3" data-name="Слой 3"><rect class="cls-1" width="1000" height="1000"/></g><g id="Слой_5" data-name="Слой 5"><path class="cls-2" d="M353.32,261.21h66.46q43.92,76.16,87.82,152.31l-81.49-33.24Z"/><path class="cls-2" d="M500.45,379.31q34-58.65,68.08-117.31l65.67.39q-38.58,63.5-77.14,127a116.2,116.2,0,0,1-56.61-10.07Z"/><path class="cls-3" d="M252.7,390.57a61.25,61.25,0,0,1,41.67,3.69c16.91-6.64,45.25-15.54,80.18-14.77,70.86,1.56,89.06,41.16,179.87,56.44,30.29,5.1,73.14,9.55,117.1-8.44,10.08-4.12,43.63-17.56,43.28-35.24,0-1.56-.41-7.63-9-15.41-29.13-26.23-94.58-20.1-111-18.28,23.32,1.49,76.74,6.3,79.45,23.67.28,1.81.15,4.62-2.67,8.87-19.38,29.15-114.37,39.93-196.75,4.57-20.3-8.72-27.86-15.33-56.59-25.64-54.63-19.6-85.59-16.62-94.7-15.5-27.58,3.4-43.49,13.1-48.06,16A101.64,101.64,0,0,0,252.7,390.57Z"/><path class="cls-3" d="M500.45,379.31a109.88,109.88,0,0,0,93-8.52,113.23,113.23,0,0,0,32.44,8.31,94.62,94.62,0,0,1-29.57,16.36C550.46,410.78,508.09,384.28,500.45,379.31Z"/><path class="cls-3" d="M312.84,450.7a121.68,121.68,0,0,1,37.45,11.61,204.51,204.51,0,0,1,46.38-4.74c29.41.39,50.63,7.16,65.44,11.59C538.33,492,579,504.17,619.3,493.43c12.87-3.43,32.82-11.11,54.85-31.12a200.63,200.63,0,0,1-53.27,9.49c-76.19,3-113-40.45-198.43-45.74a198,198,0,0,0-56.51,4.13A194.35,194.35,0,0,0,312.84,450.7Z"/></g><g id="Слой_4" data-name="Слой 4"><path class="cls-2" d="M287.3,599.44,257,525.55h20l13.2,34q.8,2.22,1.85,4.75t2.05,5.28c.67,1.83,1.33,3.76,2,5.8s1.27,4.26,1.8,6.65h-3.6q1.2-4.42,2.5-8.13t2.65-7.12q1.35-3.43,2.65-7.12l12.9-34.1h19.6l-30,73.89Z"/><path class="cls-2" d="M333.1,599.44l31.8-73.89h16.9l31.7,73.89H393.6l-16.2-37.9q-1.09-2.52-1.95-4.8c-.57-1.51-1.08-3-1.55-4.38s-.92-2.83-1.35-4.27-.85-2.94-1.25-4.49l3.7-.1c-.47,1.68-.9,3.25-1.3,4.69s-.87,2.87-1.4,4.28-1.1,2.85-1.7,4.32-1.23,3.07-1.9,4.75l-16.1,37.9Zm15.2-11.61,6-14.78h37.9l3.9,14.78Z"/><path class="cls-2" d="M429.1,599.44V525.55h19.8v55.84h38.3v18.05Z"/><path class="cls-2" d="M506.9,599.44V525.55h58.7v17.21H525.9v39.47h41.2v17.21Zm10-29.35V553.84h44.7v16.25Z"/><path class="cls-2" d="M590.1,599.44V525.55h36.8a32,32,0,0,1,14.35,3,21.66,21.66,0,0,1,9.15,8.28,24.1,24.1,0,0,1,3.2,12.62,25.14,25.14,0,0,1-3.4,13.09,24.07,24.07,0,0,1-9.3,8.91,27.49,27.49,0,0,1-13.4,3.22H608.7v24.81Zm18.6-39.79H625a9.35,9.35,0,0,0,4.6-1.11,8.62,8.62,0,0,0,3.2-3.06,8.83,8.83,0,0,0,1.2-4.7,8.24,8.24,0,0,0-1.25-4.7,7.94,7.94,0,0,0-3.4-2.8,12.24,12.24,0,0,0-5-.95H608.7Zm26,39.79-21.2-33.36,20.5-2.63,23.2,36Z"/><path class="cls-2" d="M694.8,599.44V564.71l1.4,6.86-33.5-46H686l24.8,35.26-11.6-.11,23.5-35.15h22.2l-31,45,.9-6.65v35.57Z"/><path class="cls-2" d="M290.6,705.44V631.55h37.9a25.73,25.73,0,0,1,12.9,3.22,24.12,24.12,0,0,1,12.4,21.69,26.78,26.78,0,0,1-3.45,13.67,25.5,25.5,0,0,1-9.45,9.45,26.41,26.41,0,0,1-13.5,3.48h-17v22.38ZM310.1,665h13.5a11.71,11.71,0,0,0,4.9-1,8.05,8.05,0,0,0,3.4-2.85,7.68,7.68,0,0,0,1.3-4.43,6.13,6.13,0,0,0-1.3-4,7.91,7.91,0,0,0-3.4-2.38,14.07,14.07,0,0,0-4.9-.79H310.1Z"/><path class="cls-2" d="M413.2,706.49a46.73,46.73,0,0,1-16.75-2.9,39.89,39.89,0,0,1-13.2-8.07,36.16,36.16,0,0,1-8.6-12.19,37.78,37.78,0,0,1-3-15.26,36.67,36.67,0,0,1,11.75-27.44,40,40,0,0,1,13.15-8.08,46.52,46.52,0,0,1,16.7-2.9A47.54,47.54,0,0,1,430,632.5a39.41,39.41,0,0,1,13.2,8.08,35.92,35.92,0,0,1,8.6,12.19,38,38,0,0,1,3,15.2,38.68,38.68,0,0,1-3,15.36,35.82,35.82,0,0,1-8.6,12.24,39.55,39.55,0,0,1-13.2,8.07A47.54,47.54,0,0,1,413.2,706.49Zm.1-19.42a25.07,25.07,0,0,0,8.55-1.42,20.27,20.27,0,0,0,6.8-4,18.33,18.33,0,0,0,0-27.13,20.21,20.21,0,0,0-6.85-4,26.42,26.42,0,0,0-17.15,0,21.13,21.13,0,0,0-6.85,4,17.06,17.06,0,0,0-4.45,6,19.28,19.28,0,0,0,0,15.15,16.92,16.92,0,0,0,4.45,6.07,21.13,21.13,0,0,0,6.85,4A25.28,25.28,0,0,0,413.3,687.07Z"/><path class="cls-2" d="M513.6,706.49a46.73,46.73,0,0,1-16.75-2.9,39.89,39.89,0,0,1-13.2-8.07,36.16,36.16,0,0,1-8.6-12.19A37.78,37.78,0,0,1,472,668.07a36.67,36.67,0,0,1,11.75-27.44,40,40,0,0,1,13.15-8.08,46.52,46.52,0,0,1,16.7-2.9,47.54,47.54,0,0,1,16.8,2.85,39.41,39.41,0,0,1,13.2,8.08,35.92,35.92,0,0,1,8.6,12.19,38,38,0,0,1,3,15.2,38.68,38.68,0,0,1-3,15.36,35.82,35.82,0,0,1-8.6,12.24,39.55,39.55,0,0,1-13.2,8.07A47.54,47.54,0,0,1,513.6,706.49Zm.1-19.42a25.07,25.07,0,0,0,8.55-1.42,20.27,20.27,0,0,0,6.8-4,18.33,18.33,0,0,0,0-27.13,20.21,20.21,0,0,0-6.85-4,26.42,26.42,0,0,0-17.15,0,21.13,21.13,0,0,0-6.85,4,17.06,17.06,0,0,0-4.45,6,19.28,19.28,0,0,0,0,15.15,16.92,16.92,0,0,0,4.45,6.07,21.13,21.13,0,0,0,6.85,4A25.28,25.28,0,0,0,513.7,687.07Z"/><path class="cls-2" d="M576.8,705.44V631.55h19.8v55.84h38.3v18.05Z"/><path class="cls-2" d="M683.6,706.49a62.41,62.41,0,0,1-15.1-1.69,48.61,48.61,0,0,1-12.1-4.64,51.3,51.3,0,0,1-9.5-6.75l9.6-15.31a42.68,42.68,0,0,0,14.6,8.71,44.18,44.18,0,0,0,13.6,2.37,25.78,25.78,0,0,0,4.95-.47,11,11,0,0,0,4.15-1.64,3.84,3.84,0,0,0,1.7-3.38,3.59,3.59,0,0,0-.9-2.48,7.12,7.12,0,0,0-2.45-1.68,20.57,20.57,0,0,0-3.6-1.17c-1.37-.31-2.89-.59-4.55-.84s-3.44-.48-5.3-.69A58.31,58.31,0,0,1,666.9,674a31.24,31.24,0,0,1-8.8-4.75,18.93,18.93,0,0,1-5.45-6.7,22,22,0,0,1,.65-19,22.51,22.51,0,0,1,7-7.6,33.32,33.32,0,0,1,10.35-4.69A46.86,46.86,0,0,1,683,629.65a55.7,55.7,0,0,1,13.4,1.43,37.19,37.19,0,0,1,9.9,3.9,32.74,32.74,0,0,1,7.1,5.54l-10,13.2a27.6,27.6,0,0,0-6.15-3.59,38.62,38.62,0,0,0-7.15-2.27,33.85,33.85,0,0,0-7.1-.79,29.57,29.57,0,0,0-6,.53,10.68,10.68,0,0,0-4.1,1.63,3.49,3.49,0,0,0-1.55,3,3.31,3.31,0,0,0,1.55,2.8,12.6,12.6,0,0,0,3.9,1.79,35.71,35.71,0,0,0,4.9,1.06l4.65.68a94,94,0,0,1,11.15,2.11,35.8,35.8,0,0,1,9.5,3.86,18,18,0,0,1,6.5,6.59,21.22,21.22,0,0,1,2.35,10.56,21.49,21.49,0,0,1-4.25,13.46A26.57,26.57,0,0,1,700,703.59,44,44,0,0,1,683.6,706.49Z"/><path class="cls-3" d="M1461.7,1347.77"/></g></svg>